<svg xmlns="http://www.w3.org/2000/svg" width="115.723" height="163.088" viewBox="0 0 115.723 163.088">
  <g id="Group_22" data-name="Group 22" transform="translate(-774.576 -1317.91)">
    <g id="Group_4" data-name="Group 4" transform="translate(827.003 1318.175)">
      <line id="Line_4" data-name="Line 4" y2="162.823" transform="translate(29.136)" fill="none" stroke="#db626c" stroke-miterlimit="10" stroke-width="5"/>
      <path id="Path_1833" data-name="Path 1833" d="M1611.914,470.99c.019,3.257.053,8.079.121,13.927.1,8.549.182,15.742.3,18.967.469,12.886.992,27.232,8.46,35.615,10.623,11.923,33.19,9.424,43.081-3.517,4.189-5.48,5.981-12.672,6.961-16.6,1.323-5.306,1.638-9.635,1.8-22.227.091-7.089.124-16.056-.042-26.492" transform="translate(-1611.914 -470.889)" fill="none" stroke="#db626c" stroke-miterlimit="10" stroke-width="5"/>
    </g>
    <g id="Group_5" data-name="Group 5" transform="translate(776 1318.175)">
      <line id="Line_5" data-name="Line 5" y2="162.822" transform="translate(18.182)" fill="none" stroke="#db626c" stroke-miterlimit="10" stroke-width="5"/>
      <path id="Path_1834" data-name="Path 1834" d="M1756.678,472.294a115.737,115.737,0,0,0-13.326,31.51c-1.973,7.712-4.172,16.645-2.827,28.193a46.143,46.143,0,0,0,6.057,19.486,41.949,41.949,0,0,0,9.288,10.78" transform="translate(-1739.111 -470.384)" fill="none" stroke="#db626c" stroke-miterlimit="10" stroke-width="5"/>
    </g>
  </g>
</svg>
