<svg xmlns="http://www.w3.org/2000/svg" width="144.939" height="180.835" viewBox="0 0 144.939 180.835">
  <g id="Group_19" data-name="Group 19" transform="translate(-77.124 -46.927)">
    <path id="Path_1836" data-name="Path 1836" d="M.471,37.283c.372,8.6.557,12.9,1.294,15.983a37.859,37.859,0,0,0,6.281,13.97c.8,1.055,1.522,1.882,2.038,2.439a13.177,13.177,0,0,1,.767,2.121,14.5,14.5,0,0,1,.444,4.794c.084,2.889.24,7.485.539,13.184.234,4.429.461,7.665.5,8.336a286.42,286.42,0,0,1,.042,35.868c-.731,9.877-3.476,35.778-3.182,45.613a17.375,17.375,0,0,0,.234,2.445H29.747a20.446,20.446,0,0,0,.533-3.512,18.794,18.794,0,0,0-.869-6.8c-.719-2.283-3.188-15.726-8.115-42.616,0,0-3.524-19.178-4.89-39.26-.1-1.516-.15-4.3-.24-9.876-.108-6.065-.048-8.013.725-10.464.312-.983.2-.336,2.889-5.909,2.355-4.884,3.056-6.658,3.362-8.99a19.465,19.465,0,0,0,.042-4.285c-.551-7.144-.689-10.727-1.133-15.222-.767-7.761-.509-7.839-1.109-13.664-.479-4.6-.893-7.563-1-8.342C19.253,8.307,17.881-.083,17.264,0,17.078,0,17,.84,16.9,2.482c-.138,2.337-.066,4.093-.03,5.232.066,1.924.054,3.848.1,5.777.036,1.307.048,1.966.06,2.595.066,2.4.162,4.429.461,10.062.234,4.381.222,4.015.234,4.345.114,3.554.1,9.343-.426,9.4-.372.036-.929-2.949-1.145-4.135a35.319,35.319,0,0,1-.509-3.716C15.274,27.526,15,22.888,15,22.888c-.414-7.1-.983-12.07-1.444-16.1-.378-3.332-.653-5.262-.935-5.256s-.5,2.4-.671,4.561c-.084,1.031-.234,3.146-.27,5.993,0,1.157-.036,4.033.186,7.737a2.393,2.393,0,0,0,.03.438c.114,1.84.479,8.462.306,15.816-.036,1.564-.246,4.4-.515,4.4s-.527-3-.845-6.862C9.677,19.628,9.377,16.565,9.005,13.533,8.376,8.4,7.351,1.864,6.9,1.912c-.168,0-.222,1.36-.336,4.039,0,.551-.114,2.949-.084,6.772v1.313c.06,3.907.228,7.689.461,12.513.246,5.112.264,5.13.27,6.059,0,1.444.066,7.875-.6,7.947s-1.5-4.794-1.9-7.413c-.306-2.044-.42-3.6-.455-4.087,0,0-.461-6.227-1.1-14.2C2.725,9.464,2.209,3.063,1.562,3.063c-.527,0-1,4.3-1.2,6.173C.1,11.879.046,13.868.046,14.09c-.132,5.208.06,9.445.09,10.835C.3,31.74.381,35.2.471,37.283Z" transform="translate(77.815 73.463) rotate(-34)" fill="#b7b6b6" stroke="#1d1d1b" stroke-miterlimit="10" stroke-width="1"/>
    <path id="Path_1837" data-name="Path 1837" d="M.942,191.206H15.4c.054-.186.108-.372.156-.551,3.218-11.926,2.505-23.049,2.265-27.724-.491-9.511.15-19.052.186-28.581.066-18.752,2.235-33.831,3.7-46.32,1.253-10.721,1.2-7.737,2.517-19.118,3.164-26.693,4.2-47.764,5.436-56.16.174-1.2.264-2.349.443-4.627.539-6.886.06-7.689-.354-7.953C29-.306,27.851.2,25.825,1.773a35.7,35.7,0,0,0-8.756,9.733c-.935,2.122-2.152,5.046-3.41,8.612a79.463,79.463,0,0,0-3.11,10.452A64.825,64.825,0,0,0,9.231,41.028a230.049,230.049,0,0,0,.4,28.041c.6,7.827,0,2.241,1.348,26.615.869,15.5,1.091,17.458.911,22.564A142.727,142.727,0,0,1,9.32,140.422c-2.487,12.705-4.794,15.324-7.138,27.76-1,5.322-2.565,10.308-2.1,16.978a35.837,35.837,0,0,0,.857,6.047Z" transform="translate(195.416 47.569) rotate(31)" fill="#b7b6b6" stroke="#1d1d1b" stroke-miterlimit="10" stroke-width="1"/>
  </g>
</svg>
