<svg xmlns="http://www.w3.org/2000/svg" width="403" height="394" viewBox="0 0 403 394">
  <g id="Group_25" data-name="Group 25" transform="translate(-759 -2635)">
    <g id="Ellipse_1" data-name="Ellipse 1" transform="translate(759 2635)" fill="#242627" stroke="#707070" stroke-width="1">
      <ellipse cx="201.5" cy="197" rx="201.5" ry="197" stroke="none"/>
      <ellipse cx="201.5" cy="197" rx="201" ry="196.5" fill="none"/>
    </g>
    <path id="Path_1" data-name="Path 1" d="M.705,55.808c.556,12.873.834,19.305,1.938,23.925,2.844,11.851,7.876,18.884,9.4,20.911,1.193,1.579,2.279,2.817,3.05,3.651a19.724,19.724,0,0,1,1.148,3.176,21.7,21.7,0,0,1,.664,7.177c.126,4.324.359,11.2.807,19.736.35,6.63.691,11.474.754,12.479a428.737,428.737,0,0,1,.063,53.69c-1.094,14.784-5.2,53.556-4.763,68.277a26.009,26.009,0,0,0,.35,3.66H44.528a30.6,30.6,0,0,0,.8-5.257,28.132,28.132,0,0,0-1.3-10.173c-1.077-3.418-4.772-23.539-12.147-63.791,0,0-5.275-28.707-7.32-58.768-.153-2.27-.224-6.441-.359-14.784-.161-9.079-.072-11.994,1.085-15.663.466-1.471.3-.5,4.324-8.845,3.525-7.311,4.575-9.967,5.033-13.456a29.136,29.136,0,0,0,.063-6.414c-.825-10.693-1.032-16.058-1.7-22.786-1.148-11.617-.762-11.734-1.66-20.453-.718-6.89-1.337-11.321-1.5-12.488C28.82,12.434,26.766-.125,25.842,0c-.278,0-.395,1.256-.547,3.714-.206,3.5-.1,6.127-.045,7.831.1,2.88.081,5.759.153,8.648.054,1.956.072,2.942.09,3.884.1,3.588.242,6.63.691,15.062.35,6.558.332,6.011.35,6.5.17,5.32.152,13.986-.637,14.066-.556.054-1.39-4.414-1.713-6.19a52.869,52.869,0,0,1-.763-5.562c-.556-6.755-.969-13.7-.969-13.7-.619-10.63-1.471-18.067-2.162-24.1-.565-4.988-.978-7.877-1.4-7.867s-.745,3.588-1,6.827c-.126,1.543-.35,4.71-.4,8.971,0,1.731-.054,6.037.278,11.581a3.583,3.583,0,0,0,.045.655c.17,2.754.718,12.667.457,23.674-.054,2.341-.368,6.585-.771,6.593S16.7,56.1,16.225,50.318C14.485,29.38,14.036,24.8,13.48,20.257,12.538,12.569,11,2.791,10.322,2.862c-.251,0-.332,2.036-.5,6.046,0,.825-.17,4.414-.126,10.137q0,1.166,0,1.965c.09,5.849.341,11.509.691,18.731.368,7.652.395,7.679.4,9.069,0,2.162.1,11.788-.9,11.9S7.64,53.53,7.048,49.609c-.458-3.059-.628-5.383-.682-6.118,0,0-.691-9.321-1.651-21.252C4.078,14.166,3.307,4.585,2.338,4.585c-.789,0-1.5,6.441-1.794,9.24C.149,17.781.069,20.759.069,21.091c-.2,7.8.09,14.138.135,16.219C.454,47.51.571,52.687.705,55.808Z" transform="translate(852.815 2724.329) rotate(-34)" fill="#b7b6b6" stroke="#1d1d1b" stroke-miterlimit="10" stroke-width="1"/>
    <path id="Path_2" data-name="Path 2" d="M1.41,286.213H23.057c.081-.278.161-.556.233-.825,4.817-17.852,3.75-34.5,3.391-41.5-.736-14.237.224-28.518.278-42.782.1-28.07,3.346-50.64,5.544-69.335,1.875-16.049,1.794-11.581,3.768-28.617,4.737-39.956,6.28-71.5,8.137-84.065.26-1.794.395-3.517.664-6.925.807-10.307.09-11.51-.529-11.9-1.13-.718-2.853.045-5.885,2.4A53.432,53.432,0,0,0,25.551,17.223c-1.4,3.176-3.221,7.553-5.1,12.891a118.947,118.947,0,0,0-4.656,15.645,97.035,97.035,0,0,0-1.974,15.654,344.356,344.356,0,0,0,.6,41.975c.9,11.716,0,3.355,2.018,39.839,1.3,23.207,1.633,26.132,1.363,33.775a213.645,213.645,0,0,1-3.848,33.192c-3.723,19.018-7.177,22.938-10.684,41.553-1.5,7.966-3.839,15.43-3.14,25.414a53.643,53.643,0,0,0,1.283,9.052Z" transform="translate(1028.849 2685.569) rotate(31)" fill="#b7b6b6" stroke="#1d1d1b" stroke-miterlimit="10" stroke-width="1"/>
  </g>
</svg>
