<svg xmlns="http://www.w3.org/2000/svg" width="403" height="394" viewBox="0 0 403 394">
  <g id="Group_26" data-name="Group 26" transform="translate(-759 -3437)">
    <g id="Ellipse_2" data-name="Ellipse 2" transform="translate(759 3437)" fill="#242627" stroke="#707070" stroke-width="1">
      <ellipse cx="201.5" cy="197" rx="201.5" ry="197" stroke="none"/>
      <ellipse cx="201.5" cy="197" rx="201" ry="196.5" fill="none"/>
    </g>
    <g id="Group_8" data-name="Group 8" transform="translate(-262.33 3086.815)">
      <path id="Path_1840" data-name="Path 1840" d="M1413.644,811.238a11.045,11.045,0,0,0,3.6,3.053,11.541,11.541,0,0,0,8.134.859,12.142,12.142,0,0,0,6.856-4.779" transform="translate(-199.91 -297.724)" fill="none" stroke="#161615" stroke-miterlimit="10" stroke-width="4"/>
      <path id="Path_1841" data-name="Path 1841" d="M1228.81,596.927c1.781,2.081,4.638,5.43,8.127,9.58,12.326,14.664,12.845,15.9,18.731,22.323,4.722,5.155,8.805,9.183,14.958,15.253,2.088,2.06,4.075,3.887,4.075,3.887.64.6,1.168,1.083,1.511,1.4,0,0,8.163,8.127,13.006,9.788a2.083,2.083,0,0,0,1.95,0c.722-.567.462-1.961.393-2.292" transform="translate(-70.855 -148.693)" fill="none" stroke="#161615" stroke-miterlimit="10" stroke-width="7"/>
      <path id="Path_1842" data-name="Path 1842" d="M1281.119,586.229q3.164,5.866,6.861,12.016c4.012,6.647,8.081,12.777,12.1,18.4" transform="translate(-107.379 -141.223)" fill="none" stroke="#161615" stroke-miterlimit="10" stroke-width="7"/>
      <path id="Path_1843" data-name="Path 1843" d="M1530.374,597.393a53.387,53.387,0,0,1-.929,18.751,65.223,65.223,0,0,1-6.528,16.725c-.265.453-1.823,3.1-3.63,6.791-2.012,4.109-3.257,6.652-2.825,6.964.742.534,6.175-5.671,17.47-19.239,7.211-8.662,13.065-15.826,17.01-20.68" transform="translate(-271.641 -149.018)" fill="none" stroke="#161615" stroke-miterlimit="10" stroke-width="3"/>
      <path id="Path_1844" data-name="Path 1844" d="M1187.023,699.4c-16.758,8.483-32.374,8.971-33.4,16.242a9.152,9.152,0,0,0,1.54,5.817c.6.917,2.279,3.088,9.858,5.426a51.7,51.7,0,0,0,8.28,1.927c1.052.125,3.2.377,5.907.675,0,0,45.588,5.023,72.885,2.24,4.658-.475,9.557-1.375,9.557-1.375,4.936-.906,7.648-1.4,10.6-2.539,5.4-2.072,13.613-7.032,13.006-11.3-.346-2.432-3.374-4.028-7.052-5.347-18.568-6.655-23.906-7.121-30.393-10.295-1.388-.679-12.284-6.179-18.628-17.647-4.874-8.812-4.906-17.25-4.952-23.2-.266-33.759-.4-50.639,1-93.317a58.215,58.215,0,0,1,4.443-21.724,55.4,55.4,0,0,1,7.452-12.55c22.118-28.471,85.517-86.146,76.864-102.16-1.062-1.966-2.937-2.8-5.882-3.922-29.624-11.312-59.279-11.028-77.32-10.937-32.065.161-41.778-.218-61.41,1.623-33.909,3.179-40.108,7.606-41.668,12.256-1.787,5.328,2.713,10.366,14.816,24.956,40.728,49.1,26.413,36.218,52.117,64.924,14,15.634,16.857,17.9,19.834,25.319,3.6,8.959,3.164,14.96,2.451,45.59-.58,24.924-.87,37.385-.98,43.139-.656,34.049-.024,40.03-5.392,48.041C1204.237,690.684,1194.516,695.6,1187.023,699.4Z" transform="translate(0 -21.941)" fill="#e3e9e9" stroke="#161615" stroke-miterlimit="10" stroke-width="2"/>
      <path id="Path_1845" data-name="Path 1845" d="M1244.064,1402.671c1.119-2.983,13.412-2.344,19.408-1.585,6.978.882,19.129,3.657,19.4,7.139.234,2.966-8.187,5.99-15.854,5.9C1254.839,1413.975,1242.84,1405.936,1244.064,1402.671Z" transform="translate(-81.446 -709.732)" fill="#a7cabd"/>
      <path id="Path_1846" data-name="Path 1846" d="M1363.213,1317.816c.375.263.018,1.176-2.228,7.494-1.921,5.405-2.092,5.95-2.835,6.684-3.464,3.417-10.909,2.594-11.545.608-.37-1.157,1.762-2.112,8.3-7.9C1360.367,1319.873,1362.513,1317.325,1363.213,1317.816Z" transform="translate(-153.074 -651.992)" fill="#fff"/>
      <path id="Path_1847" data-name="Path 1847" d="M1245.4,1397.668c-1.113-.05-2.426-1.439-2.6-3.34-.2-2.16,1.131-4.328,1.7-5.249,5.2-8.478,18.115-5.264,18.1-4.533-.007.264-1.684-.319-5.37.824-3.3,1.023-4.951,1.534-6.506,3.47C1247.71,1392.581,1247.489,1397.762,1245.4,1397.668Z" transform="translate(-80.608 -697.785)" fill="#fff"/>
      <path id="Path_1848" data-name="Path 1848" d="M1430.789,1306.172c2.908-.7,4.548,6.838,15.367,16.081,8.812,7.529,14.382,8.213,14.111,10.94-.47,4.724-18.071,11.654-28,3.93C1421.307,1328.6,1426.158,1307.293,1430.789,1306.172Z" transform="translate(-208.268 -643.871)" fill="#a7cabd"/>
      <path id="Path_1849" data-name="Path 1849" d="M1466.265,1334.792c1.4-.213,2.232,2.951,5.512,7.469,4.15,5.716,7.679,7.345,7.078,8.583s-4.564.406-9.711-.684c-5.571-1.18-6.335-2.146-6.656-2.778-.245-.482-.5-1.3,1.188-6.741C1464.86,1336.823,1465.468,1334.912,1466.265,1334.792Z" transform="translate(-233.89 -663.879)" fill="#fbfdfc"/>
      <path id="Path_1850" data-name="Path 1850" d="M1493.7,1400.319c2.346.048,5.115,1.381,5.484,3.206.42,2.074-2.385,4.154-3.577,5.038-10.971,8.138-38.189,5.053-38.152,4.351.014-.253,3.551.305,11.322-.791,6.958-.982,10.437-1.473,13.716-3.331C1488.833,1405.2,1489.3,1400.228,1493.7,1400.319Z" transform="translate(-230.504 -709.638)" fill="#fff"/>
      <g id="Group_10" data-name="Group 10" transform="translate(1130.609 409.344)">
        <path id="Path_1851" data-name="Path 1851" d="M1417.893,1034.011c-.695.025-.964,13.616-.819,23.677.113,7.865.681,27.429-.21,38.037a45.985,45.985,0,0,1-1.6,9.462c-1.215,4.073-2.7,6.582-2.279,6.837.464.283,2.967-2.411,4.733-5.61a24.687,24.687,0,0,0,2.945-10.35c1.143-17.834.035-28.743.035-28.743C1418.435,1045.038,1418.52,1033.988,1417.893,1034.011Z" transform="translate(-1330.009 -863.218)" fill="#a7cabd"/>
        <path id="Path_1852" data-name="Path 1852" d="M1138.2,494.782c11.073,13.622,19.942,24.594,26,32.1,14.057,17.425,21.086,26.137,21.382,26.522,2.753,3.573,7.313,9.558,14.005,17.339,3.516,4.088,1.346,1.376,10,11.013a78.96,78.96,0,0,0,15.607,13.966c2,1.313,3.335,2.028,5.094,2.063,3.774.075,6.525-3.036,10.893-7.829,3.384-3.713,7.084-7.15,10.23-11.066.281-.35,5.993-6.662,17.415-19.287,10.607-11.723,17.841-19.21,32.523-35.562a125.9,125.9,0,0,0,9.836-12.164,120.692,120.692,0,0,0,10-16.928" transform="translate(-1138.197 -486.717)" fill="#b0181d"/>
        <path id="Path_1853" data-name="Path 1853" d="M1138.2,476.122c.161-3.585,26.9-5.384,47.031-6.739,20.631-1.388,36.212-1.338,39.277-1.322,44.588.231,96.743,4.563,96.68,8.228-.01.578-1.312.977-10,2.692-20.017,3.955-30.025,5.933-41.635,7.167a363.126,363.126,0,0,1-72.007,1.365C1171.964,485.382,1138.014,480.181,1138.2,476.122Z" transform="translate(-1138.196 -468.056)" fill="#df9ca7" stroke="#161615" stroke-miterlimit="10" stroke-width="3"/>
        <path id="Path_1854" data-name="Path 1854" d="M1224.614,490.031a81.805,81.805,0,0,0,8.761-1.338c11.313-1.863,15.725-.971,31.882-1.824,12.861-.68,19.292-1.019,19.344-1.928.1-1.745-22.409-6.229-47.195-4.628-15.236.984-33.343,4.4-33.233,6.843C1204.256,489.016,1214.9,490.748,1224.614,490.031Z" transform="translate(-1184.261 -476.377)" fill="#c3828a"/>
        <path id="Path_1855" data-name="Path 1855" d="M1577.048,513.852c1.989,2.428-8.736,13.639-22.466,29.614-24.053,27.988-36.221,46.036-38.465,44.592-2.718-1.749,19.149-25.632,13.616-50.719-.833-3.776-2.463-8.383,0-11.914,3.714-5.324,12.256-1.789,27.232-5.106C1569.917,517.451,1575.633,512.125,1577.048,513.852Z" transform="translate(-1401.905 -499.796)" fill="#e03d57"/>
        <path id="Path_1856" data-name="Path 1856" d="M1182.036,526.056c1.2-1.75,4.76-.391,17.36,1.7,18.582,3.085,19.751,1.609,23.886,3.86,8.762,4.77,8.985,14.378,14.579,31.541,9.818,30.123,23.234,43.79,20.424,45.954-3.76,2.893-27.41-21.842-33.786-28.511-5.769-6.034-3.045-3.669-25.443-30.037C1185.991,535.184,1180.234,528.692,1182.036,526.056Z" transform="translate(-1168.581 -507.992)" fill="#8d1114"/>
        <path id="Path_1857" data-name="Path 1857" d="M1296.614,538.4c8.08,3.58,6.989,17.265,10.893,37.767,4.967,26.081,13.376,38.817,10.893,40.193-2.969,1.645-15.3-16.4-25.87-31.877-11.838-17.328-28.806-42.417-23.828-47.469.945-.958,1.913-.419,12.935.347C1294.756,538.273,1294.824,537.609,1296.614,538.4Z" transform="translate(-1228.695 -515.846)" fill="#a4171c"/>
        <path id="Path_1858" data-name="Path 1858" d="M1440.116,781.17c.389.5-2.2,3.1-4.514,5.417-4.954,4.965-7.432,7.448-10.232,8.126-5.629,1.362-11.939-2.256-11.737-3.912.184-1.506,5.641-.478,14.145-3.611C1435.169,784.465,1439.62,780.528,1440.116,781.17Z" transform="translate(-1330.509 -686.63)" fill="#f4ccd3"/>
        <path id="Path_1859" data-name="Path 1859" d="M1645.081,533.3c.319.426.114,1.375-8.774,11.964-7.868,9.374-11.821,14.051-12.762,13.559-1.708-.894-.083-10.648,5.982-17.547C1635.229,534.787,1643.977,531.822,1645.081,533.3Z" transform="translate(-1476.631 -513.349)" fill="#f4ccd3"/>
        <path id="Path_1860" data-name="Path 1860" d="M1438.762,852.846c-1.944,14.974-3.45,31.079-4.253,48.2a588.72,588.72,0,0,0,1.013,71.7" transform="translate(-1344.637 -736.725)" fill="#fbfdfc"/>
        <path id="Path_1861" data-name="Path 1861" d="M1589.736,644.983c.9.855-5.348,9.732-6.472,9.179-.572-.282.071-3.062,1.212-5.023C1586.131,646.3,1589.228,644.5,1589.736,644.983Z" transform="translate(-1448.804 -591.536)" fill="#f4ccd3"/>
      </g>
      <path id="Path_1862" data-name="Path 1862" d="M1419.17,1078.1c0,7.09.161,12.854.3,16.733.29,8.043.34,16.1.862,24.13.44,6.764.832,9.959-.737,14.311a24.461,24.461,0,0,1-6.445,9.534" transform="translate(-199.566 -484.657)" fill="none" stroke="#161615" stroke-miterlimit="10" stroke-width="1"/>
      <path id="Path_1863" data-name="Path 1863" d="M1427.842,1317.551a27.245,27.245,0,0,0-2.215,10.912c.028,3.315.093,10.816,5.7,15.837,5.211,4.665,11.979,4.3,14.464,4.161a23.951,23.951,0,0,0,10.314-3.014" transform="translate(-208.276 -651.849)" fill="none" stroke="#161615" stroke-miterlimit="10" stroke-width="2"/>
      <path id="Path_1864" data-name="Path 1864" d="M1244.265,1407.805a22.452,22.452,0,0,0,5.825,6.536,24.183,24.183,0,0,0,12.466,4.493,33.835,33.835,0,0,0,20.247-4.414" transform="translate(-81.646 -714.866)" fill="none" stroke="#161615" stroke-miterlimit="10" stroke-width="2"/>
      <path id="Path_1865" data-name="Path 1865" d="M1298.8,1347.894a47.15,47.15,0,0,1-18.56,10.829" transform="translate(-106.765 -673.035)" fill="none" stroke="#161615" stroke-linejoin="round" stroke-width="2"/>
      <path id="Path_1866" data-name="Path 1866" d="M1502.222,1344.48a39.277,39.277,0,0,0,8.342,7.513,33.551,33.551,0,0,0,6.388,3.315" transform="translate(-261.758 -670.651)" fill="none" stroke="#161615" stroke-linejoin="round" stroke-width="2"/>
      <path id="Path_1867" data-name="Path 1867" d="M1622.02,385.385c-1.167,1.757.27,5.624,2.518,6.5,1.935.758,3.571-1.05,5.036-.21,1.792,1.028,1.366,4.9,1.259,5.875-.9,8.141-7.233,16.009-10.281,19.723-1.45,1.767-3.121,3.645-2.518,5.035.61,1.408,3.3,1.743,5.245,1.469,2.868-.4,4.6-2.2,7.764-5.455,7.964-8.188,8.693-8.826,9.442-9.442,5.215-4.287,8.58-5.172,10.7-5.455,1.7-.227,3.987-.5,5.665.839.558.445,2.351,2.109,1.888,7.763-.749,9.164-6.007,11.508-8.183,21.821-.71,3.367-1.533,7.514.63,9.442,2.474,2.207,7.539.3,9.442-.419,6.754-2.54,6.993-6.533,12.589-7.553,3.716-.677,5.589.723,7.134-.839,1.755-1.774,1.47-5.743-.42-7.973-2.776-3.276-9.3-1.49-10.911-1.049-7.422,2.033-11.8,7.713-12.169,7.344-.3-.3,3.36-3.236,5.665-7.973.658-1.352,4.528-9.307.839-17.625-.457-1.031-4.128-9.014-11.12-10.281-10.937-1.981-22.746,13.782-23.5,13.009-.454-.465,5.134-4.845,6.5-12.169.323-1.724,1.383-7.388-2.1-10.911C1629.85,383.525,1623.516,383.131,1622.02,385.385Z" transform="translate(-342.531)" fill="#ed7813" stroke="#161615" stroke-miterlimit="10" stroke-width="2"/>
      <path id="Path_1868" data-name="Path 1868" d="M1648.588,404.881c-.042-.42,1.605-1.319,3.163-.994,2.089.435,3.065,2.736,3.147,2.938,1.25,3.067-.811,6.521-2.852,9.941-2.235,3.745-4.777,6.4-5.028,6.218-.282-.2,3.359-5.258,4.4-10.135a13.46,13.46,0,0,0,.227-3.8c-.09-2.348-.545-2.921-.779-3.159C1649.954,404.966,1648.625,405.253,1648.588,404.881Z" transform="translate(-362.847 -13.86)" fill="#9d5111"/>
      <path id="Path_1869" data-name="Path 1869" d="M1646.946,449.026,1633.4,461.864" transform="translate(-353.35 -45.425)" fill="none" stroke="#161615" stroke-miterlimit="10" stroke-width="2"/>
      <path id="Path_1870" data-name="Path 1870" d="M1745.222,528.381l-6.614,8.3" transform="translate(-426.808 -100.833)" fill="none" stroke="#161615" stroke-miterlimit="10" stroke-width="2"/>
      <path id="Path_1871" data-name="Path 1871" d="M1769.075,522.25c1.363,1.194,1.788,3.614.846,4.793-1.163,1.456-3.778.23-7.049.282-7.925.127-12.636,7.648-13.252,7.049-.728-.708,6.164-10.915,14.662-12.688C1765.6,521.41,1767.662,521.012,1769.075,522.25Z" transform="translate(-434.459 -95.957)" fill="#e19e64"/>
      <path id="Path_1872" data-name="Path 1872" d="M1729.044,447.666a7.893,7.893,0,0,1,4.272.416,9.92,9.92,0,0,1,1.954.985c3.375,2.312,3.6,8.2,3.665,9.587a17.706,17.706,0,0,1-1.692,8.741c-2.874,5.935-8.8,9.614-9.695,8.836-.228-.2-.114-.68,3.752-8.638,2.208-4.547,2.843-5.774,3.473-8.062,1.135-4.124.806-6.431.187-8.073a5.817,5.817,0,0,0-2.135-2.981A6.488,6.488,0,0,0,1729.044,447.666Z" transform="translate(-419.037 -44.388)" fill="#b56830"/>
      <line id="Line_15" data-name="Line 15" x2="14.713" y2="1.45" transform="translate(1280.622 411.858)" fill="none" stroke="#161615" stroke-miterlimit="10" stroke-width="3"/>
      <path id="Path_1873" data-name="Path 1873" d="M1132.269,448.544h0c-1.088.833-2.305,2.017-2.113,3.177.386,2.331,6.232,3.158,8.848,3.5,28.565,3.786,58.956,4.369,58.956,4.369,14.9.286,15.759.7,28.78.725,12.228.026,21.685-.315,29.615-.6.99-.036,9.715-.357,21.357-1.079,13.894-.862,19.241-1.507,25.544-3.234a81.666,81.666,0,0,0,11.911-4.281" transform="translate(-1.958 -45.089)" fill="none" stroke="#161615" stroke-miterlimit="10" stroke-width="3"/>
      <path id="Path_1874" data-name="Path 1874" d="M1217.6,428.428c-1.418-.256-2.8-.153-17.953,1.664-12.658,1.518-15.867,1.947-17.34,2.9-1.125.725-.587,1.334.468,2.529,1.74,1.971,5.407,3.1,7.97,3.861,3.655,1.092,5.482,1.637,7.787,1.686,5.288.111,7.818-1.408,18.624-2.778,6.7-.849,9.911-.795,10.836-1.442,1.177-.823-3.587-1.2-6.623-2.993C1217.053,431.312,1221.72,429.171,1217.6,428.428Z" transform="translate(-37.946 -30.971)" fill="#fbfdfc"/>
    </g>
  </g>
</svg>
